<svg xmlns="http://www.w3.org/2000/svg"  viewBox="0 0 48 48" width="48px" height="48px"><polygon fill="none" stroke="#3ed9eb" stroke-linecap="round" stroke-miterlimit="2" stroke-width="2" points="23.99,5.526 40.512,15.043 40.492,33.87 23.993,43.587 7.501,34 7.505,15.097"/><polygon fill="none" stroke="#3ed9eb" stroke-linecap="round" stroke-linejoin="round" stroke-miterlimit="2" stroke-width="2" points="8.546,15.506 39.483,15.506 24.006,43.016"/><polygon fill="none" stroke="#3ed9eb" stroke-linecap="round" stroke-linejoin="round" stroke-miterlimit="2" stroke-width="2" points="8.547,33.492 39.478,33.506 24.045,5.623"/><line x1="8.505" x2="39.438" y1="33.5" y2="15.345" fill="none" stroke="#3ed9eb" stroke-linecap="round" stroke-miterlimit="2" stroke-width="2"/><line x1="24.026" x2="24.005" y1="6.054" y2="43.233" fill="none" stroke="#3ed9eb" stroke-linecap="round" stroke-miterlimit="2" stroke-width="2"/><line x1="7.879" x2="40.101" y1="15.014" y2="33.758" fill="none" stroke="#3ed9eb" stroke-linecap="round" stroke-miterlimit="2" stroke-width="2"/><polygon fill="#04b3d7" points="37.806,14.519 39.497,17.542 41.502,14.475"/><polygon fill="#04b3d7" points="39.502,31.49 37.806,34.493 41.492,34.407"/><polygon fill="#04b3d7" points="8.493,31.516 6.516,34.542 10.158,34.496"/><polygon fill="#04b3d7" points="10.094,14.489 8.513,17.483 6.507,14.565"/><polygon fill="#04b3d7" points="21.837,41.203 24,41.654 26.191,41.17 23.999,44.737"/><polygon fill="#04b3d7" points="21.489,8.134 24.09,7.571 26.607,8.176 23.991,4.386"/><polygon fill="#04b3d7" points="25.281,22.204 22.8,22.22 21.577,24.38 22.799,26.535 25.28,26.532 26.498,24.369"/></svg>